 <svg  version="1.0" xmlns="http://www.w3.org/2000/svg"  width="300.000000pt" height="451.000000pt" viewBox="0 0 300.000000 451.000000"  preserveAspectRatio="xMidYMid meet">  <g transform="translate(0.000000,451.000000) scale(0.100000,-0.100000)" fill="#28245f" stroke="none"> <path d="M1760 4500 c-58 -7 -251 -47 -680 -140 -74 -16 -274 -59 -445 -95 -171 -36 -334 -71 -364 -77 -70 -15 -161 -75 -199 -130 -50 -73 -62 -124 -61 -266 0 -75 4 -117 8 -102 14 43 48 104 73 127 37 35 117 70 198 87 41 8 203 42 360 76 296 63 704 150 945 201 77 16 172 32 210 35 96 8 272 -18 375 -54 157 -56 625 -243 665 -267 59 -34 104 -81 129 -134 l21 -46 3 75 c7 153 -37 268 -137 363 -53 50 -71 59 -291 146 -378 150 -461 179 -540 189 -120 17 -200 20 -270 12z"/> <path d="M1745 4113 c-16 -2 -165 -33 -330 -68 -165 -35 -439 -94 -610 -130 -490 -104 -588 -126 -625 -145 -40 -21 -121 -103 -143 -146 -38 -74 -38 -101 -35 -1499 l3 -1360 26 -55 c15 -30 43 -74 64 -98 67 -77 71 -79 535 -201 63 -16 288 -75 500 -130 473 -124 741 -194 885 -233 145 -39 222 -47 231 -24 10 26 -19 59 -162 184 -71 63 -160 141 -198 175 -100 89 -115 140 -52 175 28 15 83 18 506 22 l475 5 48 28 c54 32 102 92 117 148 7 25 9 517 8 1446 l-3 1408 -28 55 c-34 66 -88 125 -141 152 -36 18 -438 170 -635 239 -126 45 -320 68 -436 52z m817 -483 c46 -17 89 -38 96 -47 8 -12 12 -66 12 -184 0 -140 -2 -168 -15 -173 -23 -9 -198 41 -212 61 -14 18 -19 353 -6 366 12 13 41 7 125 -23z m-13 -811 c66 -15 95 -27 106 -42 22 -32 22 -319 0 -341 -16 -16 -23 -16 -152 0 -72 9 -73 13 -73 208 0 120 4 176 12 184 15 15 0 16 107 -9z m-2036 -92 c53 -35 62 -61 62 -187 0 -182 -26 -210 -190 -210 l-95 0 0 211 0 211 98 -4 c72 -2 106 -8 125 -21z m368 13 c105 -29 121 -178 24 -224 -20 -10 -61 -16 -104 -16 l-71 0 0 -85 c0 -84 0 -85 -25 -85 l-25 0 0 203 c0 112 3 207 7 210 10 11 154 8 194 -3z m209 -135 c0 -200 16 -235 110 -235 30 0 47 6 65 25 24 23 25 30 26 162 1 194 0 188 27 191 l22 3 0 -161 c0 -179 -6 -201 -62 -241 -41 -29 -122 -32 -162 -6 -58 39 -66 66 -66 245 0 155 1 162 20 162 19 0 20 -7 20 -145z m-562 -542 l3 -33 -90 0 -91 0 0 -55 0 -55 75 0 75 0 0 -30 0 -30 -75 0 -75 0 0 -65 0 -65 95 0 95 0 0 -30 0 -30 -135 0 -135 0 0 208 c0 115 3 212 7 216 4 3 61 5 127 4 l121 -3 3 -32z m204 -23 c17 -30 56 -103 87 -161 l56 -106 -4 164 -3 163 36 0 36 0 0 -216 0 -215 -41 3 -40 3 -84 154 -84 154 6 -156 6 -157 -41 0 -42 0 0 208 c0 115 3 212 7 216 4 4 22 6 41 4 29 -3 38 -10 64 -58z m578 25 l0 -35 -90 0 -90 0 0 -55 0 -55 75 0 75 0 0 -30 0 -30 -75 0 -75 0 0 -65 0 -65 95 0 95 0 0 -30 0 -30 -135 0 -135 0 0 208 c0 115 3 212 7 215 3 4 62 7 130 7 l123 0 0 -35z m281 25 c77 -14 109 -51 109 -126 0 -47 -4 -60 -28 -83 -15 -15 -33 -30 -41 -32 -11 -4 -8 -14 11 -44 13 -22 36 -61 51 -87 l28 -48 -44 0 -44 0 -44 80 c-41 75 -46 80 -76 80 l-33 0 0 -80 0 -80 -40 0 -40 0 0 208 c0 115 3 212 7 215 10 10 123 8 184 -3z m452 -3 c50 -21 59 -38 36 -65 -17 -22 -20 -23 -41 -8 -29 21 -107 21 -137 0 -32 -23 -51 -74 -51 -139 0 -95 40 -145 116 -145 66 0 74 6 74 56 l0 44 -40 0 c-39 0 -40 1 -40 35 l0 36 73 -3 72 -3 3 -92 3 -91 -30 -21 c-34 -25 -111 -37 -166 -27 -44 9 -111 66 -131 114 -20 49 -18 158 5 207 44 96 158 141 254 102z m222 -89 c22 -54 42 -98 45 -98 3 0 23 44 46 98 40 96 41 97 77 100 23 2 37 -1 37 -8 0 -7 -27 -68 -60 -137 -58 -121 -60 -129 -60 -204 l0 -79 -40 0 -40 0 0 79 c0 75 -2 83 -60 204 -33 70 -60 131 -60 137 0 7 15 10 37 8 38 -3 38 -3 78 -100z m375 -678 c21 -13 28 -326 8 -352 -9 -13 -37 -20 -98 -27 -123 -14 -120 -19 -120 194 0 120 4 175 12 183 14 14 176 16 198 2z"/> <path d="M330 2535 l0 -165 69 0 c59 0 74 4 98 24 26 23 28 29 31 121 6 162 -10 185 -125 185 l-73 0 0 -165z"/> <path d="M730 2620 l0 -80 69 0 c87 0 121 22 121 79 0 20 -7 47 -16 59 -13 20 -24 22 -95 22 l-79 0 0 -80z"/> <path d="M1480 1965 l0 -65 55 0 c62 0 95 22 95 65 0 43 -33 65 -95 65 l-55 0 0 -65z"/> </g> </svg> 